<svg version="1.1" id="Layer_1" xmlns="http://www.w3.org/2000/svg" xmlns:xlink="http://www.w3.org/1999/xlink" x="0px" y="0px"
	 width="100%" viewBox="0 0 1000 1000" enable-background="new 0 0 1000 1000" xml:space="preserve">
<path fill="#FF6367" opacity="1.000000" stroke="none" 
	d="
M460.000000,1001.000000 
	C306.666656,1001.000000 153.833328,1001.000000 1.000000,1001.000000 
	C1.000000,667.666687 1.000000,334.333344 1.000000,1.000000 
	C334.333344,1.000000 667.666687,1.000000 1001.000000,1.000000 
	C1001.000000,334.333344 1001.000000,667.666687 1001.000000,1001.000000 
	C820.833313,1001.000000 640.666687,1001.000000 460.000000,1001.000000 
M142.502258,524.937988 
	C138.835999,524.937988 135.169724,524.932007 131.503479,524.939209 
	C123.325951,524.955200 120.294083,527.901672 120.293808,535.897156 
	C120.289574,661.554626 120.352753,787.212219 120.124832,912.869263 
	C120.112228,919.817993 124.607170,924.253967 131.633804,924.241394 
	C257.290863,924.016235 382.948456,924.078735 508.605927,924.075623 
	C517.251099,924.075378 519.855042,921.466553 519.855591,912.808472 
	C519.859558,851.979614 519.858032,791.150696 519.857971,730.321838 
	C519.857910,664.993286 519.861084,599.664734 519.852234,534.336182 
	C519.851379,527.823425 517.055420,525.053345 510.474335,524.944031 
	C508.974854,524.919067 507.474609,524.938232 505.974731,524.938232 
	C385.150238,524.937988 264.325745,524.937927 142.502258,524.937988 
M661.510559,361.444275 
	C663.995605,365.037506 667.385925,366.257263 671.758362,366.240662 
	C703.726562,366.119171 735.695312,366.178833 767.663940,366.172150 
	C775.705811,366.170471 777.976929,363.887299 777.979065,355.784271 
	C777.987366,323.982147 777.983887,292.180023 777.981689,260.377899 
	C777.981079,251.886932 775.885559,249.763565 767.458862,249.747894 
	C734.992310,249.687531 702.525757,249.640411 670.059204,249.573898 
	C665.388550,249.564331 661.191711,253.489868 661.192505,258.236328 
	C661.197876,292.367737 661.259827,326.499146 661.510559,361.444275 
M960.833923,42.506397 
	C960.833740,39.013081 960.855835,35.519588 960.828308,32.026485 
	C960.782349,26.184263 957.883179,23.106592 952.059082,23.054125 
	C941.746338,22.961218 931.431824,22.977179 921.118652,23.045588 
	C915.675171,23.081692 912.155212,26.618582 912.130798,31.988091 
	C912.084656,42.135124 912.084900,52.282661 912.130005,62.429703 
	C912.155579,68.174126 915.607300,71.676590 921.331848,71.712067 
	C931.312378,71.773933 941.293457,71.745285 951.274353,71.726624 
	C957.902466,71.714241 960.783203,68.778145 960.825500,61.968391 
	C960.863708,55.813744 960.833557,49.658669 960.833923,42.506397 
z"/>
<path fill="#FFE463" opacity="1.000000" stroke="none" 
	d="
M143.001755,524.937866 
	C264.325745,524.937927 385.150238,524.937988 505.974731,524.938232 
	C507.474609,524.938232 508.974854,524.919067 510.474335,524.944031 
	C517.055420,525.053345 519.851379,527.823425 519.852234,534.336182 
	C519.861084,599.664734 519.857910,664.993286 519.857971,730.321838 
	C519.858032,791.150696 519.859558,851.979614 519.855591,912.808472 
	C519.855042,921.466553 517.251099,924.075378 508.605927,924.075623 
	C382.948456,924.078735 257.290863,924.016235 131.633804,924.241394 
	C124.607170,924.253967 120.112228,919.817993 120.124832,912.869263 
	C120.352753,787.212219 120.289574,661.554626 120.293808,535.897156 
	C120.294083,527.901672 123.325951,524.955200 131.503479,524.939209 
	C135.169724,524.932007 138.835999,524.937988 143.001755,524.937866 
z"/>
<path fill="#FFE363" opacity="1.000000" stroke="none" 
	d="
M661.407227,361.037415 
	C661.259827,326.499146 661.197876,292.367737 661.192505,258.236328 
	C661.191711,253.489868 665.388550,249.564331 670.059204,249.573898 
	C702.525757,249.640411 734.992310,249.687531 767.458862,249.747894 
	C775.885559,249.763565 777.981079,251.886932 777.981689,260.377899 
	C777.983887,292.180023 777.987366,323.982147 777.979065,355.784271 
	C777.976929,363.887299 775.705811,366.170471 767.663940,366.172150 
	C735.695312,366.178833 703.726562,366.119171 671.758362,366.240662 
	C667.385925,366.257263 663.995605,365.037506 661.407227,361.037415 
z"/>
<path fill="#FFE163" opacity="1.000000" stroke="none" 
	d="
M960.833740,43.005089 
	C960.833557,49.658669 960.863708,55.813744 960.825500,61.968391 
	C960.783203,68.778145 957.902466,71.714241 951.274353,71.726624 
	C941.293457,71.745285 931.312378,71.773933 921.331848,71.712067 
	C915.607300,71.676590 912.155579,68.174126 912.130005,62.429703 
	C912.084900,52.282661 912.084656,42.135124 912.130798,31.988091 
	C912.155212,26.618582 915.675171,23.081692 921.118652,23.045588 
	C931.431824,22.977179 941.746338,22.961218 952.059082,23.054125 
	C957.883179,23.106592 960.782349,26.184263 960.828308,32.026485 
	C960.855835,35.519588 960.833740,39.013081 960.833740,43.005089 
z"/>
</svg>